Coordinates
version=1
nRows=21
nColumns=12
inDegrees=yes

Units are S.I. units (second, meters, Newtons, ...)
Angles are in degrees

endheader
time	SC_y	SC_z	SC_x	AC_y	AC_z	AC_x	GH_y	GH_z	GH_yy	EL_x	PS_y
       0.0              -34.95           -4.2           30.0          63.38         -18.75           -2.2         -121.4          64.66         -95.81          98.83           27.8
   0.01318              -34.95         -4.198          30.01          63.38         -18.75         -2.199         -121.4          64.67         -95.77          98.82          27.81
   0.02635              -34.95         -4.195          30.02          63.38         -18.75         -2.197         -121.4          64.67         -95.73          98.81          27.82
   0.03953              -34.95         -4.193          30.03          63.37         -18.74         -2.196         -121.3          64.67         -95.69           98.8          27.83
    0.0527              -34.94          -4.19          30.04          63.37         -18.74         -2.194         -121.3          64.67         -95.64          98.79          27.84
   0.06588              -34.94         -4.187          30.05          63.37         -18.73         -2.192         -121.3          64.68         -95.59          98.78          27.85
   0.07905              -34.94         -4.183          30.06          63.36         -18.73          -2.19         -121.3          64.68         -95.54          98.77          27.86
   0.09223              -34.94          -4.18          30.07          63.36         -18.72         -2.188         -121.3          64.68         -95.48          98.76          27.87
    0.1054              -34.94         -4.176          30.08          63.35         -18.72         -2.186         -121.3          64.69         -95.42          98.75          27.89
    0.1186              -34.94         -4.172          30.09          63.35         -18.71         -2.183         -121.2          64.69         -95.36          98.74           27.9
    0.1318              -34.93         -4.168          30.11          63.34          -18.7          -2.18         -121.2          64.69         -95.29          98.72          27.92
    0.1449              -34.93         -4.163          30.12          63.34          -18.7         -2.178         -121.2           64.7         -95.21          98.71          27.93
    0.1581              -34.93         -4.158          30.14          63.33         -18.69         -2.175         -121.2           64.7         -95.13          98.69          27.95
    0.1713              -34.93         -4.153          30.15          63.33         -18.68         -2.171         -121.1          64.71         -95.04          98.68          27.97
    0.1845              -34.92         -4.147          30.17          63.32         -18.67         -2.168         -121.1          64.71         -94.95          98.66          27.99
    0.1976              -34.92          -4.14          30.19          63.31         -18.67         -2.164         -121.1          64.72         -94.85          98.64          28.01
    0.2108              -34.92         -4.133          30.21          63.31         -18.66         -2.159         -121.0          64.72         -94.74          98.62          28.04
     0.224              -34.91         -4.126          30.24           63.3         -18.64         -2.155         -121.0          64.73         -94.62          98.59          28.07
    0.2372              -34.91         -4.118          30.26          63.29         -18.63          -2.15         -120.9          64.74         -94.48          98.57           28.1
    0.2503               -34.9         -4.109          30.29          63.28         -18.62         -2.144         -120.9          64.75         -94.34          98.54          28.13
    0.2635               -34.9         -4.099          30.32          63.27          -18.6         -2.138         -120.8          64.76         -94.18          98.51          28.16
